<svg preserveAspectRatio="xMidYMid meet" height="1em" width="1em" fill="currentColor" xmlns="http://www.w3.org/2000/svg" viewBox="0 0 24 24" stroke="none" class="icon-7f6730be--text-3f89f380"><g><path d="M21.9 7.6c-.1-.1-.1-.2-.2-.3l-7-7c-.1-.1-.2-.2-.3-.2-.1-.1-.3-.1-.4-.1H5C3.3 0 2 1.3 2 3v9c0 .6.4 1 1 1s1-.4 1-1V3c0-.6.4-1 1-1h8v6c0 .6.4 1 1 1h6v3c0 .6.4 1 1 1s1-.4 1-1V8c0-.1 0-.3-.1-.4zM15 3.4L18.6 7H15V3.4zM5 15H3c-.6 0-1 .4-1 1v7c0 .6.4 1 1 1s1-.4 1-1v-2h1c1.6 0 3-1.3 3-3s-1.3-3-3-3zm0 4H4v-2h1c.5 0 1 .4 1 1s-.4 1-1 1zm5.5-4H10c-.6 0-1 .4-1 1v7c0 .6.4 1 1 1h.5c2.5 0 4.5-2 4.5-4.5S13 15 10.5 15zm2.5 4.5c0 1.2-.9 2.2-2 2.4V17c1.1.3 2 1.3 2 2.5zm5-2.5v2h3c.6 0 1 .4 1 1s-.4 1-1 1h-3v2c0 .6-.4 1-1 1s-1-.4-1-1v-7c0-.6.4-1 1-1h4c.6 0 1 .4 1 1s-.4 1-1 1h-3z"></path></g></svg>